<?xml version="1.0" encoding="UTF-8"?>
<svg xmlns="http://www.w3.org/2000/svg" xmlns:xlink="http://www.w3.org/1999/xlink" width="150pt" height="149.999998pt" viewBox="0 0 150 149.999998" version="1.2">
<defs>
<clipPath id="clip1">
  <path d="M 31.699219 18.492188 L 117.949219 18.492188 L 117.949219 131.742188 L 31.699219 131.742188 Z M 31.699219 18.492188 "/>
</clipPath>
</defs>
<g id="surface1">
<rect x="0" y="0" width="150" height="149.999998" style="fill:rgb(100%,100%,100%);fill-opacity:1;stroke:none;"/>
<rect x="0" y="0" width="150" height="149.999998" style="fill:rgb(100%,100%,100%);fill-opacity:1;stroke:none;"/>
<rect x="0" y="0" width="150" height="149.999998" style="fill:rgb(100%,100%,100%);fill-opacity:1;stroke:none;"/>
<g clip-path="url(#clip1)" clip-rule="nonzero">
<path style=" stroke:none;fill-rule:nonzero;fill:rgb(64.309692%,10.978699%,17.248535%);fill-opacity:1;" d="M 66.964844 18.492188 C 65.644531 18.679688 64.71875 19.910156 64.90625 21.238281 C 65.09375 22.566406 66.320312 23.496094 67.640625 23.308594 L 67.640625 25.71875 L 72.429688 25.71875 L 72.429688 23.308594 L 77.21875 23.308594 L 77.21875 25.71875 L 82.011719 25.71875 L 82.011719 23.308594 C 82.871094 23.320312 83.675781 22.867188 84.113281 22.113281 C 84.546875 21.359375 84.546875 20.4375 84.113281 19.6875 C 83.675781 18.933594 82.871094 18.480469 82.011719 18.492188 L 67.640625 18.492188 C 67.5625 18.492188 67.488281 18.492188 67.414062 18.492188 C 67.339844 18.492188 67.265625 18.492188 67.191406 18.492188 C 67.113281 18.492188 67.039062 18.492188 66.964844 18.492188 Z M 36.054688 28.128906 C 34.910156 28.34375 34.089844 29.363281 34.105469 30.539062 L 34.105469 57.042969 C 34.097656 57.410156 34.183594 57.769531 34.332031 58.097656 L 36.203125 61.863281 L 34.332031 65.628906 C 34.183594 65.957031 34.097656 66.316406 34.105469 66.683594 L 34.105469 88.367188 C 34.097656 88.734375 34.183594 89.09375 34.332031 89.421875 L 36.203125 93.1875 L 34.332031 96.953125 C 34.183594 97.28125 34.097656 97.640625 34.105469 98.007812 L 34.105469 120.972656 C 32.667969 122.074219 31.710938 123.769531 31.710938 125.714844 C 31.710938 129.011719 34.425781 131.742188 37.699219 131.742188 L 111.949219 131.742188 C 115.222656 131.742188 117.9375 129.011719 117.9375 125.714844 C 117.9375 123.769531 116.984375 122.074219 115.542969 120.972656 L 115.542969 98.007812 C 115.550781 97.640625 115.46875 97.28125 115.316406 96.953125 L 113.445312 93.1875 L 115.316406 89.421875 C 115.46875 89.09375 115.550781 88.734375 115.542969 88.367188 L 115.542969 66.683594 C 115.550781 66.316406 115.46875 65.957031 115.316406 65.628906 L 113.445312 61.863281 L 115.316406 58.097656 C 115.46875 57.769531 115.550781 57.410156 115.542969 57.042969 L 115.542969 30.539062 C 115.542969 29.210938 114.464844 28.128906 113.148438 28.128906 L 36.503906 28.128906 C 36.425781 28.128906 36.351562 28.128906 36.277344 28.128906 C 36.203125 28.128906 36.128906 28.128906 36.054688 28.128906 Z M 38.898438 32.949219 L 110.75 32.949219 L 110.75 56.441406 L 109.253906 59.453125 L 60.453125 59.453125 C 60.378906 59.453125 60.304688 59.453125 60.230469 59.453125 C 58.910156 59.519531 57.878906 60.648438 57.945312 61.976562 C 58.011719 63.304688 59.132812 64.339844 60.453125 64.273438 L 109.253906 64.273438 L 110.75 67.285156 L 110.75 87.765625 L 109.253906 90.777344 L 60.453125 90.777344 C 60.378906 90.777344 60.304688 90.777344 60.230469 90.777344 C 60.152344 90.777344 60.078125 90.777344 60.003906 90.777344 C 58.683594 90.898438 57.710938 92.085938 57.832031 93.414062 C 57.957031 94.742188 59.132812 95.71875 60.453125 95.597656 L 109.253906 95.597656 L 110.75 98.609375 L 110.75 119.691406 L 60.453125 119.691406 C 59.59375 119.683594 58.789062 120.136719 58.347656 120.886719 C 57.917969 121.640625 57.917969 122.5625 58.347656 123.316406 C 58.789062 124.070312 59.59375 124.519531 60.453125 124.511719 L 111.949219 124.511719 C 112.632812 124.511719 113.148438 125.03125 113.148438 125.714844 C 113.148438 126.402344 112.632812 126.921875 111.949219 126.921875 L 37.699219 126.921875 C 37.015625 126.921875 36.503906 126.402344 36.503906 125.714844 C 36.503906 125.03125 37.015625 124.511719 37.699219 124.511719 L 50.871094 124.511719 C 51.734375 124.519531 52.539062 124.070312 52.976562 123.316406 C 53.410156 122.5625 53.410156 121.640625 52.976562 120.886719 C 52.539062 120.136719 51.734375 119.683594 50.871094 119.691406 L 38.898438 119.691406 L 38.898438 98.609375 L 40.394531 95.597656 L 50.871094 95.597656 C 51.734375 95.605469 52.539062 95.15625 52.976562 94.402344 C 53.410156 93.648438 53.410156 92.726562 52.976562 91.972656 C 52.539062 91.21875 51.734375 90.769531 50.871094 90.777344 L 40.394531 90.777344 L 38.898438 87.765625 L 38.898438 67.285156 L 40.394531 64.273438 L 50.871094 64.273438 C 51.734375 64.28125 52.539062 63.828125 52.976562 63.078125 C 53.410156 62.324219 53.410156 61.402344 52.976562 60.648438 C 52.539062 59.894531 51.734375 59.445312 50.871094 59.453125 L 40.394531 59.453125 L 38.898438 56.441406 Z M 66.441406 37.765625 C 64.457031 37.765625 62.847656 39.386719 62.847656 41.382812 C 62.847656 43.375 64.457031 44.996094 66.441406 44.996094 L 83.207031 44.996094 C 85.191406 44.996094 86.800781 43.375 86.800781 41.382812 C 86.800781 39.386719 85.191406 37.765625 83.207031 37.765625 Z M 66.441406 37.765625 "/>
</g>
</g>
</svg>
